<svg width="640" height="640" viewBox="0 0 640 640" fill="none" xmlns="http://www.w3.org/2000/svg" role="img" aria-label="Maple pixel RPG preview">
  <defs>
    <linearGradient id="bg" x1="79" y1="43" x2="580" y2="606" gradientUnits="userSpaceOnUse">
      <stop stop-color="#80D8FF"/>
      <stop offset="0.55" stop-color="#95F0B6"/>
      <stop offset="1" stop-color="#FFE27A"/>
    </linearGradient>
    <filter id="pxshadow" x="118" y="89" width="404" height="471" filterUnits="userSpaceOnUse" color-interpolation-filters="sRGB">
      <feDropShadow dx="0" dy="26" stdDeviation="20" flood-color="#316D67" flood-opacity="0.28"/>
    </filter>
  </defs>
  <rect width="640" height="640" rx="76" fill="url(#bg)"/>
  <path d="M0 462H98V424H168V459H245V421H328V462H411V427H497V462H640V640H0V462Z" fill="#E0B258" fill-opacity="0.5"/>
  <path d="M79 405H137V430H79V405ZM486 370H567V399H486V370ZM95 164H152V190H95V164ZM458 126H530V153H458V126Z" fill="white" fill-opacity="0.34"/>
  <g filter="url(#pxshadow)" shape-rendering="crispEdges">
    <path d="M218 202H252V168H286V151H354V168H388V202H422V287H405V338H371V389H269V338H235V287H218V202Z" fill="#343051"/>
    <path d="M252 219H388V304H371V338H337V355H303V338H269V304H252V219Z" fill="#FFD1B7"/>
    <path d="M235 202H269V185H371V202H405V236H388V219H252V236H235V202Z" fill="#6542C8"/>
    <path d="M269 287H303V321H269V287ZM337 287H371V321H337V287Z" fill="#2C2440"/>
    <path d="M303 338H337V355H303V338Z" fill="#C96D75"/>
    <path d="M252 389H388V508H252V389Z" fill="#4AA3FF"/>
    <path d="M269 406H371V457H269V406Z" fill="#FFFFFF"/>
    <path d="M218 406H252V491H218V406ZM388 406H422V491H388V406Z" fill="#FFD1B7"/>
    <path d="M269 508H303V542H252V525H269V508ZM337 508H371V525H388V542H337V508Z" fill="#343051"/>
    <path d="M184 321H218V355H184V321ZM422 321H456V355H422V321Z" fill="#FFCF3D"/>
    <path d="M184 287H201V321H184V287ZM439 287H456V321H439V287Z" fill="#FF9C2B"/>
  </g>
  <g shape-rendering="crispEdges" opacity="0.9">
    <path d="M116 269H139V292H116V269ZM139 246H162V269H139V246ZM162 269H185V292H162V269ZM139 292H162V315H139V292Z" fill="#FFF7A6"/>
    <path d="M477 248H496V267H477V248ZM496 229H515V248H496V229ZM515 248H534V267H515V248ZM496 267H515V286H496V267Z" fill="#FFFFFF"/>
  </g>
</svg>
